<svg width="22" height="28" viewBox="0 0 22 28" fill="none" xmlns="http://www.w3.org/2000/svg">
<path d="M18.6722 16.6666C20.3283 16.6666 21.6707 18.009 21.6707 19.6651V20.8897C21.6707 21.6542 21.4318 22.3995 20.9873 23.0215C18.9261 25.9058 15.5604 27.3348 11 27.3348C6.43871 27.3348 3.07476 25.9052 1.01855 23.0194C0.575929 22.3982 0.338055 21.6545 0.338055 20.8917V19.6651C0.338055 18.009 1.68053 16.6666 3.33656 16.6666H18.6722ZM11 0.672832C14.6819 0.672832 17.6667 3.6576 17.6667 7.3395C17.6667 11.0214 14.6819 14.0062 11 14.0062C7.3181 14.0062 4.33333 11.0214 4.33333 7.3395C4.33333 3.6576 7.3181 0.672832 11 0.672832Z" fill="#79807C"/>
</svg>
